<?xml version="1.0" encoding="utf-8"?>
<!-- Svg Vector Icons : http://www.onlinewebfonts.com/icon -->
<!DOCTYPE svg PUBLIC "-//W3C//DTD SVG 1.1//EN" "http://www.w3.org/Graphics/SVG/1.1/DTD/svg11.dtd">
<svg version="1.1" xmlns="http://www.w3.org/2000/svg" xmlns:xlink="http://www.w3.org/1999/xlink" x="0px" y="0px" viewBox="0 0 256 256" enable-background="new 0 0 256 256" xml:space="preserve">
<metadata> Svg Vector Icons : http://www.onlinewebfonts.com/icon </metadata>
<g><g><path fill="#000000" d="M170.5,20h-1.2c-1,0.7-2,1.1-3.2,1.2l-2.4,1.6l-0.8,0.4c-2.2,1.4-4,2.5-5.6,3.2c-16,16.5-22.7,35.2-20.1,56.2c-3.8,1.5-5.4,0.7-4.9-2.4V77l0.9-6.4c0.7-2.8,1.2-5.2,1.2-7.3c1.1-3.1,1.6-6,1.6-8.8c0.8-4.8,1.1-8.9,0.8-12.1v-8.8L136,26c-1.1-1.8-2.3-3.3-3.7-4.4l-4.8,0.8c-12.5,5.9-22.3,13.9-29.3,24.1c-2,2.2-3.9,3.9-5.6,4.9h-4.5L87,51.8h-1.2c-1.1,0.4-2.1,0.5-3.2,0.4c-4.2,1.6-8.2,2.2-12.1,2l-0.4-0.8c-11.8-5.8-23.4-8.5-34.9-8.1c-1.3,2.3-1.3,5,0,8.1c-8.1,2.4-14.4,6.5-18.9,12.4l3.2-0.8c0.3-0.3,0.5-0.4,0.8-0.4l1.6-0.8l1.2-0.4h1.2l0.8-0.8h1.2l0.8-0.4h1.2c3.6-1.2,6.8-1.7,9.7-1.6c1.1,1.6,1.7,3.3,2,4.8c-4.1,2-7.3,4.1-9.6,6.1c-5.9,6.3-8.5,13.2-7.7,20.9l1.2,0.4c2.8-7.3,7-13.1,12.5-17.3c3.4-2.6,6.6-2.7,9.6-0.4c-9.6,10-11.5,20.9-5.6,32.5l0.8-0.4c-0.8-9.9,2.3-17.8,9.2-23.7l2.9-1.2l0.8,0.8l2,3.6l0.8,0.4l0.8,0.8l0.4,1.7l0.8,0.4l0.4,1.2l0.8,0.8l0.8,1.2l0.4,1.2c1.2,1.6,2,3.1,2.4,4.4c1,1.6,1.7,3,2,4.4h-1.5c-0.4,0.3-0.8,0.4-1.2,0.4c-1.1,0.4-2.1,0.6-3.2,0.4c-1.6,0.7-3.1,1.1-4.4,1.2v1.2l0.8,0.4c2.7,1.7,4.8,3.3,6.4,4.9c-2.4,2-3.9,4.4-4.4,7.2c2.4-0.6,4.7-0.9,6.8-0.8v1.2c-0.7,1.5-1.2,3.1-1.2,4.8l1.2,0.4c1.4-1.2,2.7-1.8,4-2c-1,2.9-1.3,5.6-0.8,8.1c2.9-2.6,5.5-4.5,7.7-5.7h1.6l2.8,0.4l2.4,0.4l1.2,0.8c1.3,0,2.4,0.2,3.2,0.4l6.5,1.3l-2.1,3.2c2.4-1,4.1-0.6,4.9,1.2c-5.8,4.7-12,7.1-18.5,7.2c-1.1-6.2-4.7-8.6-10.9-7.2l-3.6-7.3c-14.5-13.9-30.4-18-47.7-12.5c-6.4,5-6.6,9.1-0.4,12.4h5.2c6.1-2,11.9-2.2,17.3-0.8c-0.9,0.8-1.9,1.4-2.8,1.6c-11.2,1.6-19.5,6.6-24.9,15.3c-0.7,7.4,4.2,7.6,14.8,0.8c-1.9,2-3.2,4-4,6.1c0.4,3.5,1.7,6.1,4,8l0.8,2.8v2.4l0.8,4.8l0.8,1.2l0.4,0.9l0.8,2.4c0.4,0.3,0.7,0.7,0.8,1.2l0.8,0.8l0.5,0.8l0.8,2.4c0.4,0.3,0.7,0.5,0.8,0.8l0.4,0.8l0.8,0.8l0.4,1.2c1.4,1.3,2.5,2.6,3.2,4l-0.4,1.6c-4.4,4.1-6.3,8.9-5.6,14.5c0.9,2.1,1.6,4,2,5.6l0.8,0.8l3.2,5.7c24,24.1,50.5,30.3,79.5,18.5l2.4-1.6c2.6-2.7,4.8-4.7,6.8-6.1h2l6.1,2.8l0.8,0.4c1.9,0.8,3.3,1.7,4.4,2.5l2,0.4c3.6,1.3,6.6,2.1,9.2,2.4c-0.6,1.2-1.4,2-2.4,2.4h-1.2l-1.2,0.8l-3.2,0.4l-2.8,0.8c-1,0-1.8,0.3-2.4,0.8c29.2,2.7,54.9-3,77-17.3c0.3-0.4,0.5-0.7,0.8-0.8l0.4-0.8l0.9-0.8l1.2-0.4c1.8-2.1,3.6-3.7,5.2-4.8l1.2-1.2l0.4-1.2l1.2-0.8c1.5-2.7,3.1-4.9,4.8-6.5c16.6-33.9,14.6-64.1-6-90.7l1.6-2.4l0.8-0.9l0.8-0.8l1.2-0.8l0.4-1.2l0.8-0.8l2.4-2l0.8-1.2c0.3-0.4,0.5-0.7,0.8-0.8l0.4-1.2l0.8-0.8l5.7-9.2c0.8-3.6,1.8-6.5,2.8-8.9v-1.6c0.4-1.5,0.7-2.8,0.8-4l0.4-0.8v-2l0.4-1.2l0.4-1.7v-2.8c0.5-2.9,0.8-5.3,0.8-7.2l-1.2,0.4c-1.2,3.3-2.9,6-5.2,8c-0.1-15.5-4.3-28.8-12.5-39.8l-2.8-1.2l-0.4,2.4c4.5,14,1,24.5-10.5,31.3c-8-26.7-21.2-40.2-39.8-40.5L170.5,20z M190.6,32.1c1,0.1,1.1-0.4,0.4-1.6l1.6,1.2c0.8,0.8,0.7,1.5-0.4,2c1.8,0.2,2.9,1.2,3.3,2.8c-1.8-0.9-3.1-1.9-4.1-2.8c-2.1-0.7-3.9-1.5-5.2-2.4c-20.7-3.5-34,7.8-39.8,33.7l-1.2,0.8c0.4-3.4,1.2-6.4,2.4-8.8c0.3-9,3.5-17.3,9.7-24.9c4.6-4.4,9.8-6.9,15.6-7.7C180.4,24.2,186.2,26.8,190.6,32.1L190.6,32.1z M134,29.3c-2.4-4.2-6.7-4.5-12.9-0.9c2.2-1.8,4.5-3,6.8-3.6C131.8,24.3,133.9,25.8,134,29.3z M130,30.5l0.4,2l0.4,1.2v1.6c0.8,4.8,1.1,8.8,0.8,12v4.1l-0.4,0.8v1.2l-0.8,8c-0.7,4-1.2,4-1.6,0v-1.2l-0.4-1.2v-1.2l-0.8-2.4v-1.6l-0.8-1.2v-1.2l-0.8-3.3l-0.4-1.2c-0.9-1.9-1.6-3.5-2-4.8l-1.6-1.2l-2.8,0.4l-1.2,0.4c-1.1,0.7-2.2,1.1-3.2,1.2c-2.1,1.6-4,2.6-5.7,3.2c5.3-7.6,11.6-13.1,18.9-16.4L130,30.5z M213,77.4l0.8-0.4v-2.4l0.4-0.8V71c0.1-3.6,0-6.6-0.4-8.9c8.7-6.2,13.7-14.3,14.9-24.5c1.3,3.1,1.8,5.9,1.6,8.4c2.4,3.3,2.7,2.2,0.8-3.2l-2-5.2l-0.8-3.2h0.4c6.7,12.2,9.6,24.5,8.5,36.9l-2.1,3.2l-1.2,0.8l-0.4,1.2c-2.1,2.1-3.7,4-4.8,5.6l2.4-1.2l2.8-2.8l0.8-0.4l0.8-1.2l2.5-2c1.7-2.7,3.3-4.9,4.8-6.5c-2.4,16.9-9.1,30.4-20.1,40.6l-2-0.9c-11.6-8.6-24-13.1-36.9-13.6h-4c-3.3-4.1-7.3-5.4-12.1-4c6.1-5.1,14.7-4.1,25.7,2.8v-1.2c-1.8-2-3.2-3.9-4-5.7l-1.2-0.8l-1.6-2.4l-1.6-1.2l-0.8-1.2l-2.4-1.6l-2.8-2.8c-0.4-0.3-0.7-0.5-0.8-0.8c-2.4-1.6-4.3-3-5.7-4.4c2.4-0.1,4.4,0,6.1,0.4l2,0.8l1.6,0.8l2.8,1.2l0.4,0.8l2.4,0.8l0.4,0.8l2.8,1.2c2.4,1.6,5,2.6,7.7,3.2l-0.4-1.6l-0.8-1.2l-0.4-1.6c-1.7-1.9-3-3.8-3.7-5.6c-1.5-1.6-2.6-3.3-3.2-4.9l1.2,0.8l1.2,0.4l1.2,1.2L195,69l0.8,0.8l1.2,0.8l1.2,0.4l0.8,0.4c1.7,1.9,3.4,3.2,5.2,4v-1.2l-0.8-1.2l-0.4-1.2l-0.8-3.7l-0.8-1.2l-0.4-1.2l-1.6-4l-0.4-1.2l-0.4-0.8l-0.8-2.4l-0.8-0.8l-0.8-2.4c-0.9-1.1-1.6-2.1-2.1-3.2l-2.8-4.9c-1.4-0.9-2.6-2-3.6-3.2h1.2c2.6,1.1,4.8,2.5,6.5,4c3.3,1.9,5.9,4.1,7.6,6.5h1.2c-0.3,0.4-0.5,0.7-0.8,0.8c1.1,0.6,1.3,1.3,0.8,2c1.5,0,2.7,1.2,3.6,3.6l-0.4-3.2l-0.8-1.2v-1.6l-2.4-4.4l-1.6-2.9l-0.4-1.2l-0.4-1.6l-0.8-1.2c-1.1-1.7-1.7-3.2-2-4.4c-2.7-3.2-4.6-6-5.7-8.4C206.9,43.5,213.5,59.4,213,77.4L213,77.4z M108.3,38.5c-0.6,1.5-1.4,2.5-2.4,3.2l-0.4,1.2l-0.8,1.2l-1.2,0.8c-1.2,2.4-2.5,4.3-4,5.7c-0.7,1.4-1.6,2.6-2.8,3.6c-2,0.6-3.8,0.9-5.3,0.8h-1.6l-1.2,0.4h-1.2l-6.8,1.2C79.2,57,78,57.3,77,57.4l1.6-2h2.8l2.8-1.2h1.2l2.8-0.8h2.4l4.9-0.8l0.8-1.2l1.6-1.2l0.8-1.2l0.8-1.3l1.2-0.8c0.3-0.4,0.5-0.7,0.8-0.8c0.6-1.2,1.3-2.1,2-2.8l0.8-1.2l0.8-0.8l0.4-0.8l0.8-0.4l5.6-5.6C112.1,36.3,110.9,37.7,108.3,38.5L108.3,38.5z M122.4,42.9c3.7,8.5,5.3,16.6,4.8,24.5c-0.4-0.3-0.7-0.5-0.8-0.8l-1.6-1.6l-5.6-6.4c-1.1-0.8-1.9-1.6-2.4-2.4l-1.2-0.4l-0.8-0.8c-0.4-0.3-0.7-0.5-0.8-0.8c-2.6-0.9-4.7-2.1-6.5-3.6c4-4.2,8.3-7,12.9-8.5L122.4,42.9z M37.3,48.5c11.9-1.8,22.2,0.8,30.9,7.7l1.2-0.8v1.2L68.2,57c-9.3-5.8-18.9-8.5-28.9-8l-1.6,2.8c-0.5-1.6-0.8-2.9-0.8-4.1C37.2,47.9,37.3,48.2,37.3,48.5L37.3,48.5z M231.9,55l1.6,3.2c0.3-3.4-0.2-6.3-1.6-8.8C232.4,51.4,232.4,53.3,231.9,55z M61.4,59.4c-10.4-4.2-20.4-5-30.1-2.4c3.5-1.8,6.7-2.9,9.6-3.2C48.7,53.8,55.5,55.6,61.4,59.4z M55.4,67h-1.6c-2.7-0.5-5-0.6-6.9-0.4c-6.5,1.4-11.8,3.9-16,7.7c4.7-5,10-7.9,16-8.9C50.2,65.1,53.1,65.6,55.4,67z M238,78.2c1.3-1.9,2-3.7,2-5.6C238.8,74.7,238.1,76.6,238,78.2z M57.4,74.7c-8.5,2.3-14.4,7.1-17.7,14.5c2.6-7.9,7.5-13,14.9-15.3L57.4,74.7z M125.6,74.7c2.1,3.1,3.2,6.2,3.2,9.2l1.2,0.4l-1.2,0.4c-0.6,0.6-1.3,1-2,1.2c0.2-4.6-0.4-8.6-2-12C125.2,74.1,125.5,74.4,125.6,74.7z M98.3,83.9c4,6,5.4,12.1,4.4,18.5c-3.2,8-9.6,7.9-19.3-0.4c-4.7-13.6-4.1-22.7,1.6-27.3C91.4,75.3,95.9,78.3,98.3,83.9L98.3,83.9z M73.4,91.9c-2.8-1.7-3.9,0-3.3,5.2h-0.4l2.5,8l-1.3,0.8l-2-1.2c-3.6-8.9-3.7-17.1-0.4-24.5C71.9,81.7,73.5,85.6,73.4,91.9L73.4,91.9z M136.4,87.9l-0.8,0.4l-0.4,0.9c-0.8,0.6-1.5,1.3-2,2c-1.9,1.4-3.2,2.7-4.1,4c6.7-2.4,12.3-2.7,16.9-0.8c-6.3,0.3-10.5,2.8-12.8,7.6l2.8-1.2c7.6-0.7,12.5,2.3,14.8,8.9c-4.1-2.7-8.2-4.2-12.4-4.5l-3.6,2.4c2,0.8,3.5,1.6,4.4,2.5c2.6,2.7,4.2,5.6,4.8,8.8c-1.2-0.7-2.1-1.5-2.8-2.4c-5-5.8-10.5-7.8-16.5-6c-4.5,7.6-8.9,11.1-13.3,10.4c-3.1,4.6-7.2,5.7-12.4,3.2v1.2c-14,1.8-24.6-1.8-31.7-10.8l3.2,0.8c3.9,4.3,8.4,6.7,13.7,7.2c-10.5-3.9-13.6-7.1-9.6-9.6c-1-3.1-0.4-5.2,1.6-6.5c-2.1,1.1-4.2,1.5-6.1,1.2c6.7-4.3,13.7-4,20.9,0.9l7.3,0.8l0.8-0.4l4-0.4l0.8-0.9h1.2l1.2-0.8l1.2-0.4c1.1-0.9,2.1-1.6,3.2-2l4.9-2.8c1.2-0.7,1.8-0.3,2,1.2c3.7-10,10.1-16.3,19.3-18.9C142.4,83.3,142.3,84.6,136.4,87.9L136.4,87.9z M131.2,87.1c2.4-0.2,4.3-0.9,5.7-2C134.4,85.6,132.6,86.3,131.2,87.1z M92.3,86.7c-1.6,4.3-1.6,8.6,0,12.9l0.8,0.8c0.8,2.3,2,4.1,3.6,5.6l2.4-0.4c1.3-7.7-0.4-14-5.2-18.9H92.3L92.3,86.7z M136,90.7l2-2.5C140.4,90,139.7,90.8,136,90.7z M96.3,92.3c-1.2-1-2.1-2.1-2.8-3.2C94.9,89.7,95.9,90.8,96.3,92.3z M177,94.3c-5.8,0.6-10.7,2.2-14.9,4.8c1.8-4,4.5-6.6,8-8C173.4,90.9,175.7,91.9,177,94.3z M95.1,96.7c-1.2-1.4-1.6-2.8-1.2-4.4C95.1,93.7,95.5,95.2,95.1,96.7L95.1,96.7z M72.2,99.1c-0.8-0.8-1.3-1.7-1.3-2.8C71.9,97,72.4,98,72.2,99.1z M216.7,107.9l-0.8,0.5l2.4,1.6c1,0.3,1.4,0.9,1.2,2c1.6-0.4,2.7,0.3,3.2,2c1.5,0.7,2.1,1.8,2,3.2c1.9,0.2,2.7,1.3,2.4,3.2l0.8-0.4l0.4,1.2c0.3,0.4,0.4,0.8,0.4,1.2l0.8,0.4c0.6,1.6,1.3,2.7,2,3.6c0.4,2.7,1.1,5,2,6.9l-0.8,1.2l0.8-0.8c1.7,12.1,0.5,23.1-3.6,32.9c2.4-21-2.7-38.5-15.3-52.5c-11.7-11.6-25.2-16.2-40.5-13.7c-3.1,0.4-3.8,0-2.1-1.2c-3.6-0.3-2.7-0.7,2.9-1.2h-3.7l3.7-1.2C190.9,95.7,204.8,99.5,216.7,107.9L216.7,107.9z M139.3,98.3v-0.4l1.6-0.8C143.1,98.5,142.5,98.9,139.3,98.3L139.3,98.3z M183.4,97.9c1.7,0,1.8-0.3,0.4-0.8L183.4,97.9z M177,97.9l-1.2-0.4C175.8,98.8,176.2,98.9,177,97.9z M170.1,100.3c-0.6,0.3-1.2,0.3-1.6,0H170.1z M147.6,105.9c-1.5-1.6-3.1-2.6-4.8-3.2C144.4,104.2,145.9,105.3,147.6,105.9z M68.6,106.3c-2.4,4.5-5.7,4.6-10,0.4c0.6-1.1,2-1.6,4.4-1.6C65.1,105.2,66.9,105.6,68.6,106.3L68.6,106.3z M61,107.1l1.2-0.4c0.8,0.5,1.6,0.4,2.4-0.4h-3.2L61,107.1z M121.2,111.6c2.4-2.3,4.7-3.8,7.2-4.5l-2.4-0.4C123.8,108.2,122.1,109.9,121.2,111.6L121.2,111.6z M103.9,112c-3.4,4.4-7.7,5.4-12.9,3.2c1.6,1.2,3.1,2,4.5,2.4c8.5,9.3,12.5,7.7,12-4.8c0.7-1.3,1.5-2,2.4-2.4l-2.4-0.8C106.2,110.7,105,111.6,103.9,112z M70.6,110.4c-0.6,1-1.2,1-1.6,0H70.6z M157.3,128.1l0.8,1.6c-1.2,0.5-2,0.1-2.4-1.2c2.2-6.6,1.6-12.6-2-18.1C158.2,115.9,159.4,121.8,157.3,128.1L157.3,128.1z M63,126.4c5,9.9,3.5,17.8-4.4,23.7l-2,1.2v1.2c2.9-0.6,3.6,0,2,2c-1.7,3-4.1,4.8-7.2,5.6V153l-1.7-1.6c-3.7,0.5-6.5-0.8-8.4-4.1c0.6-3.3,1.8-5.9,3.6-8l1.6-1.6c-0.7,6.2,1.4,10.2,6.5,12.1c-4-4.2-5.8-9.2-5.3-14.9c-1.3,0.4-2.5,0.9-3.6,1.6c-2.8,4.8-6.7,7.5-11.6,8c-1.1-0.4-2.1-1.1-2.9-2c2-12.2,10.8-19.2,26.5-20.9c-5.1-1.6-9.7-0.9-13.7,2c-3.6-0.2-6.8-1.2-9.6-2.8h-4c-0.8,0.3-1.6,0.4-2.4,0.4c-4.2,1.3-8,1.5-11.6,0.8c-1-1.5-1.4-3-1.2-4.4l0.8-1.2c3.8-3.2,8.1-4.8,12.8-4.8C41.9,112,53.8,116.9,63,126.4L63,126.4z M136.8,116.4h-1.6c-2.4-0.8-4.2-2-5.7-3.6c-1.3,0-2.4,0.1-3.2,0.4c0.2-0.7,0.5-1.3,0.8-1.6C131,112.2,134.3,113.8,136.8,116.4L136.8,116.4z M105.9,118.4l-0.8,3.6c-5.3-1-5.2-4,0.4-9.2C101.8,119.7,102,121.6,105.9,118.4L105.9,118.4z M66.2,115.6c-3.7,1.7-4.9,1.4-3.6-0.8c-2.4,0.6-2.3,0.1,0.4-1.6C64.5,113.6,65.6,114.4,66.2,115.6L66.2,115.6z M184.6,136.5c0.7,2.9,0.1,4.9-1.6,6l-4-1.2c-0.5-2.9-2.1-4.9-4.8-6c-1.1-5.5-6-6.5-14.9-3.2c1.4-6,1.6-11.5,0.4-16.5c1.3-0.7,2.5-1.3,3.6-1.6C177.6,113.9,184.7,121.4,184.6,136.5L184.6,136.5z M123.2,116v2.4c0.9,1.8,1.4,3.5,1.6,5.2c1.9-3.7,4.7-5.6,8.5-5.6l-0.5,1.2c-1.6,2.3-2.8,4.6-3.6,6.8c2.1-0.1,3.7-0.4,4.9-0.8c-1.6,2.7-2.4,5.3-2.5,7.7l1.7,2.4l12,7.2c-15.4,6.2-28,2.8-37.8-10c-1.6,2.3-3.4,2.8-5.6,1.6c1.9-1.6,2.6-3.2,2-4.8h-1.2l-6.4-0.8c4.7-3.3,8.4-2.9,10.8,1.2l2.8,0.4c5.8-3.8,10-8.6,12.5-14.5L123.2,116z M139.6,119.2l0.8,0.8c0.9,0.5,1.7,1.2,2.4,2c1.1,0.9,2,1.8,2.8,2.8l2,0.8l-0.4,1.2c2.1,1.7,4,2.8,5.6,3.3l-0.4,1.6c1.6,0.7,2.7,1.8,3.3,3.2c-0.7,0-1.2-0.1-1.6-0.4l-2.1-1.6l-0.8-1.2c-1.2-0.8-2.1-1.6-2.8-2.4l-0.8-0.8l-1.2-0.9l-3.2-3.2c-3.2-2.1-5.6-4.1-7.2-6l0.8-1.6C138.1,117.3,139,118.1,139.6,119.2L139.6,119.2z M20.8,120.4c-2.6,0-4-1.3-4.4-3.6C15.5,120.4,17,121.6,20.8,120.4z M66.2,121.2h0.4c-2.1,2-2,0.9,0.4-3.2C69.8,119.6,69.6,120.6,66.2,121.2L66.2,121.2z M75,123.6c-1.6,1.5-3.4,2.4-5.3,2.8l-0.4,2.1c-0.3-2.5,0.3-4.6,1.6-6.5C72.5,122.3,73.8,122.8,75,123.6L75,123.6z M70.2,126c0.6-0.6,1-1.3,1.2-2L70.2,126z M35.3,128.5l-3.2,3.2c-4.2,6-9.2,10.4-14.9,13.2c-1.6,0.1-3.1-0.3-4.4-1.2c1.9-9.1,9.1-14.6,21.7-16.5L35.3,128.5z M167.3,136.9l1.2,0.8c3.7-1.3,6.6-0.6,8.5,2c-11.4-0.7-18.3,4.2-20.9,14.5c-0.3,3.3-0.8,3.6-1.6,0.8c-0.4-2.2-0.1-4.2,0.8-6c-0.3-0.5-0.5-0.7-0.8-0.8c-1.5,2-2.3,4-2.5,6c-1.3-0.3-2.4-0.8-3.2-1.6c-1.3-3.7-0.9-6.9,1.2-9.7c4.5-5.6,9.8-9.2,16.1-10.8C173.7,132.6,174.1,134.2,167.3,136.9L167.3,136.9z M75.8,147.7c-0.8,7-3.9,10.7-9.3,11.2v-1.2l0.8-0.4l0.8-1.6c1.3-1.5,2.2-3,2.8-4.4h-1.6c-2.2,5-5.7,7.3-10.4,6.8c8.8-6.3,12-13.9,9.6-22.9c0.2-0.4,0.5-0.7,0.8-0.8c2.9,2.5,4.5,5.3,4.9,8.4c1.3-3.8,0.5-6.4-2.4-7.6v-2C76.5,135.9,77.9,140.8,75.8,147.7L75.8,147.7z M157.7,138.1c4.1-1.9,8-2.8,11.6-2.8v-1.2l-2.4-0.4C163.1,134.6,160,136.1,157.7,138.1z M78.6,144.1c1.3-1.5,2.8-2.6,4.4-3.2c5.3-1.3,9.7-3.4,13.3-6.4C92.7,140.6,86.9,143.8,78.6,144.1L78.6,144.1z M199.5,139.3l0.4,5.6c1,4.8,1.4,8.8,1.2,12.1c0.2,1.2,0.7,2,1.6,2.4c1.3-2.2,2.6-4,4-5.2l0.4-1.2c0.9-1.3,1.6-2.4,2-3.2l0.8-0.8c1-3.2,2.4-5.7,4-7.7v10.9l-0.4,2v1.2c-0.4,2.7-0.5,5-0.4,6.8l-0.4,0.8v1.2l-0.8,6.5l-0.4,5.6l2.4-1.2l0.8-1.6l0.9-0.8l1.6-2.4l3.2-3.7c0.5-1.6,1.2-2.8,2-3.6v4.4l-0.4,0.9c0,3.6-0.4,6.6-1.2,9.2l-0.4,2.8c-0.6,1.3-1,2.4-1.2,3.2l-0.4,1.6c-1.3,2.6-2,4.9-2.4,6.9c2.4-0.3,4.1-1.5,5.2-3.6c-0.4,1.4-1.1,2.6-2,3.6l-0.4,1.2c-1.8,2.1-3,4.3-3.6,6.4l0.8-1.2c1.2-1.9,2.4-3.4,3.6-4.4v-1.2l0.8-1.2l0.8-0.8l0.4-2.4l2.4-4.5l3.6-4.8c0.9-2.9,1.9-5.2,2.8-6.8l3.2-8.9v-1.2l0.8-1.6l0.4-2.8l0.4-2.4c0.9-2.4,1.3-4.7,1.3-6.8c0.3-0.4,0.5-0.7,0.8-0.8c1.9,17.4-0.4,33-6.9,46.9c-9.4,17.8-23.9,29.4-43.3,34.9l-4,0.8c-3,1.2-5.7,1.9-8,2l-1.2,0.4h-1.3c-0.4,0.3-0.8,0.4-1.2,0.4h-1.2c-0.4,0.3-0.8,0.4-1.2,0.4l-1.2,0.4h-2.8c-0.3,0.3-0.5,0.4-0.8,0.4h-1.6l-0.8,0.4h-1.6c-2.6,0.5-4.9,0.6-6.8,0.4H148l0.8-0.8c2.1-0.8,3.9-1.8,5.3-2.8c3.6-5,8-8.2,13.2-9.7h1.2c1.9-0.8,3.5-1.3,4.8-1.6l-1.6-0.8c-7.3,1.3-13.3,4.1-18,8.5c-10.7-0.9-20-4-27.7-9.3l-3.6-1.6l-3.2-2.4h1.2c5.4,0.5,10.1,0.2,14.1-0.8l-0.8-0.8c-3.1-0.3-5.7-0.8-7.7-1.6c-11.5-7.6-23.2-9.2-34.9-4.9v-0.4c9.6-14.4,24.3-18.8,44.2-13.2h11.6l1.2-0.4l7.3-0.8c6.5-2.5,11.6-6.2,15.2-10.9h1.6l2.5,3.6c2.4,13.9,8.3,21.5,17.6,22.9c1.1-1,1.9-1.9,2.4-2.9c0-2.4-0.3-4.6-0.8-6.4l-1.2-2.8l-0.8-0.4l-0.8-2.4c-2.8-3.9-4.6-7.6-5.2-11.3c4.6,1.8,7.3,5,8,9.7c1.4,0.9,2.6,2,3.7,3.2c3.1-0.4,4.7-2.1,4.8-5.2c5.5,0.6,9.9-0.7,13.3-4.1v-2l-0.9-0.4l-2-1.6c-4.3-0.9-7.7-2.3-10.4-4c0-2.7-0.6-4.9-1.6-6.8c0.1-7.8-2.1-14.2-6.9-19.3l0.4-1.6v-1.2l0.4-1.7l0.9-1.6l2.4-10c0.9,1.6,1.5,3,1.6,4.4L199.5,139.3z M112.8,140.9c-9.5,1-17.2,4.6-22.9,10.9c-1.5-0.1-2.8-0.4-4-0.8l0.4-0.8l1.2-0.8l1.2-0.4c0.3-0.3,0.5-0.4,0.8-0.4c0.8-0.6,1.6-1,2.4-1.3c1-1.1,2.1-1.9,3.3-2.4c3-4.4,6.5-7.6,10.4-9.6C108.7,136.3,111.1,138.1,112.8,140.9L112.8,140.9z M37.3,140.9c-2.7,0.7-4.7,0-6-2C31.7,142.3,33.7,143,37.3,140.9z M16.8,142.1l-0.8-2.4C15.9,140.8,16.2,141.6,16.8,142.1z M168.9,142.5c-1.4,2.4-2.3,2.4-2.8,0H168.9z M195,155.3c6,9.9,6,12.6,0,8v1.2c1.6,1.5,2.8,3,3.6,4.5c5.6,8.9,2.7,9.2-8.5,0.8c0.8,1.3,1.6,2.3,2.4,2.8c5.8,5.2,12.2,8.4,19.3,9.6c0.6,0.9,1,1.8,1.2,2.8c-1,1.1-2.1,1.9-3.2,2.5c-9.7-0.1-17.9-3-24.5-8.5c-0.2-2.5-0.6-4.5-1.2-6c-0.5,7.7,1.3,14.1,5.2,19.3v1.2c1.4,1.6,2.3,3.2,2.8,4.8c0.7,2.1,0.7,4.1,0,6c-8.9-0.3-14.5-7.4-16.8-21.3c-1.3-1.8-2.7-3.3-4.1-4.4c-2.4-0.3-4.5-0.3-6.4,0c-2.3,1.3-4.4,2.1-6.4,2.4c-6.4,5.4-11.9,5.8-16.5,1.2l0.8-2.8l0.8-0.4c5.3-1.6,9.6-3.7,12.9-6.4l0.8-2.4c-1.4-15.3,4.9-24.6,18.9-27.7C185,143.6,191.3,147.9,195,155.3L195,155.3z M31.3,147.3c4.2,0.3,7.6,1.3,10.4,2.9c1.3,6.3-3,7.8-12.9,4.4c-6-2.9-6.8-6.8-2.4-11.7C28.6,144,30.2,145.5,31.3,147.3L31.3,147.3z M111.5,143.3c-7.6,1.6-13.7,5-18.4,10.1v-2.4c4.6-4,9.4-6.7,14.4-8.1C109,142.8,110.3,143,111.5,143.3L111.5,143.3z M129.6,143.3c3.1,1.1,5.9,1,8.5-0.4C134.8,143.4,132,143.6,129.6,143.3z M37.3,146.1l0.8-1.6C40.3,146.1,40,146.6,37.3,146.1z M66.2,147.7c-0.9,0-1.5-0.4-1.6-1.3C65.5,146.5,66,146.9,66.2,147.7z M136,148.1l-0.8,1.2l-2.9,2.4c-0.3,0.4-0.5,0.7-0.8,0.8c-0.9,1.3-1.8,2.2-2.8,2.8c-0.7,0.9-1.5,1.6-2.4,2c-0.3,0.5-0.5,0.7-0.8,0.8c-0.3,0.3-0.5,0.4-0.8,0.4c-1.4,1.7-2.9,3-4.4,4c-9.1-2.1-15.9,0.1-20.5,6.5c-0.5-2.5-0.5-4.8,0-6.9c4.7-8.7,12-13.9,21.7-15.3C127.3,146.6,132.1,147,136,148.1L136,148.1z M137.3,151.7l-1.2,1.2c-1.3,1.7-2.5,3.1-3.7,4l-0.4,0.8l-6.8,8l-1.6-0.4l0.8-1.2c1.3-1.6,2.3-3.1,2.8-4.4l0.8-0.4c0.8-0.9,1.7-1.7,2.8-2.4l1.6-1.6l0.4-0.8l1.3-1.2l0.8-1.2c0.4-0.3,0.7-0.5,0.8-0.8l0.8-0.4c1-1.3,1.9-2.4,2.8-3.2C139,149.3,138.3,150.7,137.3,151.7L137.3,151.7z M146.8,151.3l0.8,2l0.8,0.4l6.9,4.4c0.8,5.6,0.3,10.5-1.6,14.9l-1.3,0.8l-1.2,0.4c-0.4,0.3-0.8,0.4-1.2,0.4l-0.8,0.8l-3.2,0.8c-0.4,0.3-0.8,0.4-1.2,0.4l-4.8,2c-0.7,2-0.8,3.7-0.4,5.2c6.5,5.3,14,4.3,22.5-2.8c2-0.7,3.7-1.1,5.2-1.2c-7.4,10-18.7,13.8-34.1,11.3c2.4-6.6,2.1-12.6-0.9-18.1l1.3-1.2l0.8-2l1.2-0.8l0.4-1.7l0.8-0.8l0.4-1.2l0.8-1.2l0.8-1.6l0.8-0.8l0.4-1.2c0.3-0.4,0.5-0.7,0.8-0.8l4.8-8.8L146.8,151.3z M46.1,160.5c-4.5,1.8-8.5,1.4-12-1.2v-1.2c2-0.7,4.2-1,6.4-0.8c1.8-2.2,3.8-3.8,6-4.8C51.2,154.5,51.1,157.2,46.1,160.5L46.1,160.5z M98.3,169c-2,1.9-3.4,3.7-4.4,5.6l-1.2,1.2c-0.1-2.2-0.7-3.9-1.7-5.2l0.4,8.8h-1.2l-0.8-0.8v-1.2l-0.4-3.2l-0.4-2.4c-1-2-1.6-3.9-2-5.7l-2-2c-3.6-2.5-6.1-5.2-7.6-8c4.3,0.1,7.4,2,9.2,5.6l2,1.2c-1.7-3.3-4-5.8-6.8-7.6l0.8-2.8C91.7,154.3,97.1,159.8,98.3,169L98.3,169z M79.4,153.3c-3.6,1.8-4,1.6-1.2-0.4L79.4,153.3z M83,155.3c3.9,1.1,7,2.9,9.3,5.6c-2.6-3.7-5.9-6-9.7-6.8L83,155.3z M61.4,160.5c3.2-0.6,6-0.5,8.4,0.4l-0.4,1.2c-0.5,5.8-1.9,10.7-4,14.9c-4.7,2.3-9.3-2.8-13.6-15.3c2-0.8,3.4-1.6,4.4-2.4C58.1,160,59.8,160.4,61.4,160.5L61.4,160.5z M53.4,169.8c-3.1-1.7-4.7-4.2-4.9-7.7C51.2,164.3,52.8,166.9,53.4,169.8z M124.4,169.4c6.8,4.5,9.6,10.4,8.4,17.6c-0.7,2.5-1.9,2-3.6-1.6c-1.6-2.2-3.4-3.8-5.2-4.8l-0.4,0.8c2.9,2.4,4.7,5.2,5.2,8.5l-8-0.4c-6.2-10.6-14.7-14.2-25.7-10.9c2.1-8.1,7.9-10.4,17.2-6.8l-1.6-2.4c-9.6-0.3-10.1-2.3-1.6-6.1C115.3,163.6,120.4,165.7,124.4,169.4L124.4,169.4z M109.9,166.5h-1.6C106.4,168.2,107,168.2,109.9,166.5z M84.6,171l1.2-0.4C86.5,173.6,86.1,173.8,84.6,171z M105.9,173.4h-5.2C102.7,173.8,104.4,173.8,105.9,173.4z M95.1,188.7c1.8,2.2,3.1,4.2,4,6c-6,4.8-10.3,10.3-12.9,16.5l1.2,0.4c5.6-3.8,11.5-5.4,17.7-4.9c2.3,5.7,3.1,11.2,2.4,16.5c-0.7,2.5-2.2,4.2-4.4,4.9c-27.5,1.6-48.4-7.6-62.6-27.7l-0.4-1.6c-1.1-2.4-1.8-4.5-2-6.4c0.3-2.4,0.8-4.4,1.6-6.1c6.4-4.8,13.3-7.1,20.9-6.8C74.1,178.5,85.6,181.6,95.1,188.7L95.1,188.7z M111.5,183.8c-0.7,1.5-1.8,1.9-3.2,1.2c1.7-1.2,2.9-2.2,3.6-3.2C113.2,182.6,113,183.3,111.5,183.8z M199.9,188.3c-1.3,6.2-3.4,5.4-6.5-2.5L199.9,188.3z M49.7,213.9c-9.2-6.9-13.7-15.6-13.6-26.1C37.7,198.7,42.2,207.4,49.7,213.9z M45.7,199.1c1.1,1,1.9,2.1,2.4,3.2c0.5,0.3,0.7,0.5,0.8,0.8c1.1,0.9,1.9,1.9,2.5,2.8c1.7,1.1,3.1,2.3,4,3.7c13.8,8.5,27.9,13.2,42.1,14l6.4-1.6c-13,0.9-24.3-1.9-33.7-8.4c-2.6-0.1-4.6-1-6-2.8c-2-0.5-3.5-1.5-4.4-2.8c-3.2-1.1-5.6-2.9-7.2-5.3l-0.8,1.2l-1.3-2.8h-1.6c-0.5-0.9-0.9-1.9-1.2-2.8c-2.3-2.7-3.8-5.7-4.4-8.8C43.6,193,44.4,196.2,45.7,199.1L45.7,199.1z M213,201.1c1.3-0.2,1.6-0.7,0.8-1.6L213,201.1z M50.5,216.7l1.7,0.8l2.8,2.4l1.2,0.4c2,1.7,3.7,2.9,5.2,3.6c-0.5,0.4-1,0.5-1.6,0.4c2.3,2,0.9,1.8-4-0.4c-3.3-2.1-5.8-4.1-7.7-6c0.9,0,1.3-0.6,1.2-1.6L50.5,216.7z"/></g></g>
</svg>